<svg id="Layer_1" data-name="Layer 1" xmlns="http://www.w3.org/2000/svg" xmlns:xlink="http://www.w3.org/1999/xlink" viewBox="0 0 295 118"><defs><style>.cls-1{fill:none;}.cls-2{clip-path:url(#clip-path);}.cls-3{fill:#4f87a0;}.cls-4{fill:#173a64;}.cls-5{fill:#fff;}</style><clipPath id="clip-path"><rect class="cls-1" y="0.72" width="294.96" height="117.28"/></clipPath></defs><g class="cls-2"><polyline class="cls-3" points="122.54 118 119.41 118 155.04 0.72 158.18 0.72 122.54 118"/><path class="cls-3" d="M182.72,90.52a6,6,0,0,1,.26,1.63,23.14,23.14,0,0,1-.16,2.49s1.92-2,7.13-2.54c.64-.07,2.23-.12,4.28-.15-1.14.9-2.12,1.66-2.68,2.07A9.44,9.44,0,0,1,187,95.9h-.27l.13.24a5.34,5.34,0,0,1,.56,1.9,3.79,3.79,0,0,1-.07,1.35,40.27,40.27,0,0,1,4.56-4.71c.58-.46,1.65-1.34,2.9-2.37,0,3.54-.12,7.73-.12,7.73l.58.38s.08-4.72.16-8.5h0c3.17,2.06,6.86,4.56,6.86,4.56l0-.55-5.89-4c3.74,0,8.26,0,11.49,0h4.12l-.35-.62s-8.83,0-15.58,0L202.52,86l.2-.15-.17-.46-.29.23c-.06,0-3.69,3-6.8,5.41,0-1.26,0-2.34.07-3v-.17c.09-2.62.17-5.41,1.62-6.39,0,0-1.48.15-2.25.17-1,0-1.92,0-1.93,0l-.64,0,.54.35s1.63,1.15,1.89,6.34c0,.6,0,1.51,0,2.56L192.18,89c-2.23-1.52-4.47-3.09-5-4.74a10.2,10.2,0,0,1-.89,1.79c-.54.82-.95,1.33-1,1.34l-.27.33.43,0s2.37-.24,6.15,1.89c.61.34,1.59,1,2.72,1.68-2.51,0-4.12,0-4.74,0a43.7,43.7,0,0,1-6.92-.73"/><path class="cls-3" d="M295,91.79l-.18-.45h-1s-3.35-6-4.87-8.67a17.62,17.62,0,0,1-1.82-5.92l-.05-.6-.28.53a7.17,7.17,0,0,1-1.28,1.66,12.76,12.76,0,0,1-1.69,1.25l-.32.2.36.12s3.24,1.06,4.51,3.15,4.05,6.91,4.84,8.28l-5.3,0c-1.45-2.62-3.22-5.79-4-7.05a15.39,15.39,0,0,1-1.83-5.93l0-.51-.28.43A12.64,12.64,0,0,1,280.38,80a6.5,6.5,0,0,1-1.58,1.19l-.37.2.4.13s3.24,1,4.51,3.15,3.14,5.38,3.87,6.66l-4.94,0c-1.47-2.57-3.08-5.35-3.71-6.45a13.67,13.67,0,0,1-1.53-6,9,9,0,0,1-1.53,1.56,6.12,6.12,0,0,1-1.67.85s1.95.63,4.14,3.91c.66,1,2.21,3.58,3.67,6.07h-1.76l.27-.29-.25-.4-.64.59a.84.84,0,0,0-.1.1h-2.45c-.95-1.71-1.83-3.27-2.28-4a13.63,13.63,0,0,1-2.15-7.12c0-.15,0-.42,0-.52a1.39,1.39,0,0,0-.07-.28l-.25.36a15.73,15.73,0,0,1-1.25,1.58,7,7,0,0,1-1.48,1.23l-.31.17.33.14s1.75.91,4.65,5c.54.76,1.34,2.06,2.19,3.49-5.51,0-10.9,0-14.05,0l-10.44,0c-1.8-3.25-3.53-6.45-4.18-7.91-2.85-6.31-1.71-9.41-1.7-9.44a24.85,24.85,0,0,1-2.62,2.26c-1.19.83-3.45,2.06-3.45,2.06a11.61,11.61,0,0,1,6.4,5.19c.58,1,2.58,4.31,4.67,7.84l-11.72,0h-.13l0,.13a4.93,4.93,0,0,1,.91,1.4A3.55,3.55,0,0,1,240,94.5a9.75,9.75,0,0,1,5.32-2.36c.3,0,2.83-.08,5.85-.14l5.38,9,.24-.61S254.39,96.29,252,92c4-.07,8.53-.14,9.92-.11,6.66,0,10.62,0,14.48-.07.26.45.53.92.8,1.37-1.39,1.36-3.16,3.08-4.18,4-2.86,2.68-4.64,2.7-4.72,2.7H268l.09.25a18.36,18.36,0,0,1,.64,2.09c.22,1,.41,2.35.41,2.35a15.61,15.61,0,0,1,4.32-6.89l4-4c.71,1.22,1.36,2.37,1.82,3.18l-2,1.94a21.83,21.83,0,0,1-5.23,3.87l-.24.11.19.18a4.58,4.58,0,0,1,.84,1,7.47,7.47,0,0,1,.48,1.69s.85-2.79,4.45-6.43l1.84-1.86.35.64.5-.09-.5-.9,3.2-3.23,1.71,3h.58l-.23-.39-1.69-3,1.61-1.62.06-.06h2.29l0,0,1.39,2.31-5.14,5a20.68,20.68,0,0,1-5.3,3.9l-.24.11.19.18a4.55,4.55,0,0,1,.83,1.06,6.86,6.86,0,0,1,.46,1.69s.87-2.8,4.47-6.49c1-1,3.18-3.2,5-5l.55.9.41-.17-.6-1.09L292,91.79h1.49l1,1.67.46-.14-.84-1.53H295m-18,0h1.58l-1,1Zm2.63,4.72-1.78-3.22,1.5-1.51H282l.94,1.61ZM283.27,93l-.7-1.23h2Zm6,.75-1.09-2h3.12C291,92.09,290.22,92.84,289.27,93.76Z"/></g><path class="cls-3" d="M216.34,102h-2c0-6.7.05-16.59,0-18.76,0-3.32,1.83-8.78,1.85-8.83l.11-.31-.32.08a11,11,0,0,1-2.27.22,5.32,5.32,0,0,1-2.32-.45l-.44-.23.2.46A42.7,42.7,0,0,1,213,79.34c-4,0-18.49-.06-27.83-.06-4.73,0-7.56,0-8.41,0a29.46,29.46,0,0,1-7.6-1.17l-.25-.07,0,.26s.09.91.18,2.41c.07,1.34.06,2.62.06,2.63v.35l.27-.21c.05,0,4.8-3,8.12-3.23,1.85-.14,29.92-.29,35.59-.32a16.55,16.55,0,0,1,.4,2.55c.12,2.21.17,12.64.2,19.52-4.21,0-12.81,0-20.78,0-8.22,0-13.8.06-16.71.1,0-4.24.13-11.34.29-13.18.46-5.15,2-7,2-7a11.23,11.23,0,0,1-2.32.36h-.06a5.39,5.39,0,0,1-1.29-.12l-.31-.11.08.32a30.74,30.74,0,0,1,.93,6.28c0,1.88,0,9.22,0,13.49l-1.63,0c-.74,0-1.74,0-3,0s-2.36,0-3.3-.08c0-1.31,0-9.2,0-11.68a18.37,18.37,0,0,1,1.6-6.09l.13-.27h-.29a16.16,16.16,0,0,1-1.91,0,8.84,8.84,0,0,1-2.3-.71s-.38,0-.2.27,1.65,1.91,2.06,7.1c.19,2.45.22,10,.22,11.39l-1.21-.06-.32,0,.16.28a9,9,0,0,1,1,2.57,10.81,10.81,0,0,1,0,1.94l-.07.54.37-.4s2.54-2.54,8.67-3.77c0,1.28,0,2.1,0,2.1l.55.09s0-.91,0-2.3l.07,0c1.36-.24,28.49-.32,37.43-.35,0,3.24,0,5.56,0,5.56l.63.17s0-2.4,0-5.73h2.17l-.21-.62"/><path class="cls-3" d="M239.49,75.86a15.57,15.57,0,0,1-2.33.23,5.28,5.28,0,0,1-2.18-.56,53.6,53.6,0,0,1,1.41,5.34l-6.45-.05a32.87,32.87,0,0,1-4.66-.51,8.06,8.06,0,0,1,.2,1.73,15,15,0,0,1-.17,1.56s1.31-1.79,4.9-2.14c1.3-.12,4.41-.14,6.14-.14h.13a15,15,0,0,1,.21,1.71c0,.07,0,.17,0,.27h-6.49a17.58,17.58,0,0,1-3.59-.44l-.23,0s.06.75,0,1.32-.11,1.34-.11,1.34,1.12-1.38,4.05-1.59c1.27-.09,5.44-.1,6.35-.1,0,.7,0,1.68.05,2.85-1.41,0-4.39-.08-5.58-.07h-.07a13,13,0,0,1-3.47-.65l-.24-.08s0,1.09,0,1.67a14.41,14.41,0,0,1-.33,1.87l.46-.49a5.8,5.8,0,0,1,3.81-1.74h5.43c0,1.08,0,2.3,0,3.55a59.65,59.65,0,0,1-6.4-.22,17.74,17.74,0,0,1-2.66-.81,8.26,8.26,0,0,1,.07,1.84,11.9,11.9,0,0,1-.29,1.71c1-1.59,3.65-1.86,6.24-2,.29,0,2.16,0,3.05,0,0,1.42,0,2.88,0,4.27-.66,0-4.61,0-6.05,0a8.06,8.06,0,0,1-3.08-.8l-.28-.14a9.31,9.31,0,0,1,.11,1.41,8.72,8.72,0,0,1-.33,1.55l.32-.14A24.23,24.23,0,0,1,231,96.25,35.78,35.78,0,0,1,235.8,96h1.08c0,3.79.05,6.91.05,6.91l.62.12s-.06-17.13.19-20a43.46,43.46,0,0,1,1.75-7.15"/><path class="cls-4" d="M194.45,9.32c17.27,0,29.61,13.47,29.61,29.07s-12.27,29.08-29.68,29.08c-17.64,0-29.46-14-29.46-28.4a31.57,31.57,0,0,1,2.2-12A29.11,29.11,0,0,1,194.45,9.32m.23,45.58c10.15,0,15.06-9.24,15.06-16.43s-4.91-16.58-15.21-16.58c-9.92,0-15.3,8.47-15.3,16.35C179.23,46.87,185.06,54.9,194.68,54.9Z"/><polyline class="cls-4" points="227.9 10.38 242.2 10.38 242.2 53.84 258.79 53.84 258.79 66.41 227.9 66.41 227.9 10.38"/><polyline class="cls-4" points="263.2 10.38 277.51 10.38 277.51 53.84 294.09 53.84 294.09 66.41 263.2 66.41 263.2 10.38"/><path class="cls-5" d="M104.2,71.19c-.69-5.4-1.35-10.6-2-15.8-1.11-8.66-2.28-17.32-3.3-26A3.1,3.1,0,0,0,96,26.25c-13.4-3.09-25,.52-35.26,9.23a4.78,4.78,0,0,0-1.36,3.23c-.08,14.72-.05,29.44-.05,45.11,12.05-16,28.12-14.76,44.83-12.63M57.71,80.7c.17-1.55.32-2.35.32-3.15,0-12.76.16-25.53,0-38.28a14.17,14.17,0,0,0-1.74-6.48C50.15,21.66,40.49,15.68,27.64,13.91L21.69,58.62C37.54,59.68,51.36,63.42,57.71,80.7Zm-48-38.12-1-.41c-.4.62-1.06,1.19-1.17,1.85C5,59.43,2.53,74.86,0,90.54c6.2-1,12.13-2.12,18.11-2.82A90.35,90.35,0,0,1,48,89a7.53,7.53,0,0,1,3.77,2.43,9,9,0,0,0,13.63-.28,7.23,7.23,0,0,1,3.8-2.35c15-3.26,30-2,44.81,1.49.87.21,1.76.37,3.21.68-2.74-16.49-5.42-32.6-8.1-48.71l-1.78.28c2.42,14.88,4.85,29.75,7.23,44.36-6.43-2-12.56-4.37-18.9-5.78-12.29-2.73-24-.58-34.95,5.64-1,.55-2.77.88-3.55.36-12.24-8.17-25.42-8.67-39.1-5-5.2,1.4-10.28,3.25-16,5.07C4.68,72.11,7.22,57.35,9.75,42.58ZM56.28,81.93C49.68,65.12,35,63,19.2,62.42c1.55-12,3.07-23.76,4.63-35.8H18c-2,14.86-4.07,29.61-6.16,44.83C28.14,70,44,68.64,56.28,81.93ZM9.54,75.65C11.29,62.41,13,49.4,14.72,36.39l-1-.53c-.8,1.14-2.12,2.19-2.33,3.43C8.86,54,6.53,68.72,4.05,84.08c17.89-7.8,35.29-9.55,52.41.75C43.38,69.81,26.66,72.88,9.54,75.65ZM112.4,83.88c-.73-4.73-1.39-9.17-2.09-13.61-1.62-10.1-3.18-20.2-5-30.27-.29-1.61-1.61-3-2.46-4.54l-1.17.53c1.9,13,3.81,26.07,5.79,39.63C103,75,98.64,74.3,94.27,73.84c-7.62-.81-15.16-.47-22.42,2.33a23.67,23.67,0,0,0-11.18,8.48C77.62,74.05,94.69,76.38,112.4,83.88Z"/><path class="cls-4" d="M59.37,83.82c12.05-16,28.12-14.76,44.83-12.63-.69-5.4-1.35-10.6-2-15.8-1.11-8.66-2.28-17.32-3.3-26A3.1,3.1,0,0,0,96,26.25c-13.4-3.09-25,.52-35.26,9.23a4.78,4.78,0,0,0-1.36,3.23c-.08,14.72-.05,29.44-.05,45.11"/><path class="cls-4" d="M21.69,58.62c15.85,1.06,29.82,4.94,36.18,22.22.08-1.53.16-2.49.16-3.29,0-12.76.16-25.53,0-38.28a14.17,14.17,0,0,0-1.74-6.48C50.15,21.66,40.49,15.68,27.64,13.91L21.69,58.62"/><path class="cls-4" d="M2.1,87.17C4.68,72.11,7.22,57.35,9.75,42.58l-1-.41c-.4.62-1.06,1.19-1.17,1.85C5,59.43,2.53,74.86,0,90.54c6.2-1,12.13-2.12,18.11-2.82A90.35,90.35,0,0,1,48,89a7.53,7.53,0,0,1,3.77,2.43,9,9,0,0,0,13.63-.28,7.23,7.23,0,0,1,3.8-2.35c15-3.26,30-2,44.81,1.49.87.21,1.76.37,3.21.68-2.74-16.49-5.42-32.6-8.1-48.71l-1.78.28c2.42,14.88,4.85,29.75,7.23,44.36-6.43-2-12.56-4.37-18.9-5.78-12.29-2.73-24-.58-34.95,5.64-1,.55-2.77.88-3.55.36-12.24-8.17-25.42-8.67-39.1-5-5.2,1.4-10.28,3.25-16,5.07"/><path class="cls-3" d="M11.79,71.45C28.14,70,44,68.64,56.28,81.93,49.68,65.12,35,63,19.2,62.42c1.55-12,3.07-23.76,4.63-35.8H18c-2,14.86-4.07,29.61-6.16,44.83"/><path class="cls-4" d="M56.46,84.83c-13.08-15-29.8-12-46.92-9.18C11.29,62.41,13,49.4,14.72,36.39l-1-.53c-.8,1.14-2.12,2.19-2.33,3.43C8.86,54,6.53,68.72,4.05,84.08c17.89-7.8,35.29-9.55,52.41.75"/><path class="cls-4" d="M60.67,84.65c17-10.6,34-8.27,51.73-.77-.73-4.73-1.39-9.17-2.09-13.61-1.62-10.1-3.18-20.2-5-30.27-.29-1.61-1.61-3-2.46-4.54l-1.17.53c1.9,13,3.81,26.07,5.79,39.63C103,75,98.64,74.3,94.27,73.84c-7.62-.81-15.16-.47-22.42,2.33a23.67,23.67,0,0,0-11.18,8.48"/></svg>